<svg width="101" height="86" viewBox="0 0 101 86" fill="none" xmlns="http://www.w3.org/2000/svg">
<g filter="url(#filter0_f_509_5843)">
<ellipse cx="73.5765" cy="45.119" rx="5.97318" ry="0.985865" transform="rotate(-19.9323 73.5765 45.119)" fill="#AEAEAE" fill-opacity="0.75"/>
</g>
<g filter="url(#filter1_f_509_5843)">
<ellipse cx="74.0076" cy="45.4567" rx="2.31968" ry="0.173976" transform="rotate(-19.9323 74.0076 45.4567)" fill="#363636"/>
</g>
<g filter="url(#filter2_f_509_5843)">
<ellipse cx="5.97318" cy="0.985865" rx="5.97318" ry="0.985865" transform="matrix(-0.940096 0.34091 0.34091 0.940096 32.0791 59.1191)" fill="#AEAEAE" fill-opacity="0.75"/>
</g>
<g filter="url(#filter3_f_509_5843)">
<ellipse cx="2.31968" cy="0.173976" rx="2.31968" ry="0.173976" transform="matrix(-0.940096 0.34091 0.34091 0.940096 28.8066 61.6641)" fill="#363636"/>
</g>
<path d="M15.5275 18.0692C16.8736 17.2903 19.2791 17.0172 19.3582 17.2353L12.9634 21.0348C12.8154 20.2865 14.0999 18.8953 15.5275 18.0692Z" fill="#2B2E35"/>
<path d="M19.2883 17.2634C19.8194 17.0708 20.2062 17.8757 20.2588 18.021C19.1651 18.319 15.0339 20.4911 13.1793 21.8211C13.1029 21.7255 12.8458 21.1775 12.9027 21.0583C14.4122 18.6616 18.6245 17.5041 19.2883 17.2634Z" fill="#363A3D"/>
<path d="M19.2883 17.2634C19.8194 17.0708 20.2062 17.8757 20.2588 18.021C19.1651 18.319 15.0339 20.4911 13.1793 21.8211C13.1029 21.7255 12.8458 21.1775 12.9027 21.0583C14.4122 18.6616 18.6245 17.5041 19.2883 17.2634Z" fill="url(#paint0_linear_509_5843)"/>
<path d="M53.6913 4.23057C52.1589 4.49551 50.1375 5.82776 50.2166 6.04584L57.5603 4.86327C57.1943 4.19408 55.3167 3.94958 53.6913 4.23057Z" fill="#2B2E35"/>
<path d="M50.2868 6.02249C49.7557 6.21507 49.9747 7.08082 50.0274 7.2261C51.0579 6.75377 55.6211 5.77296 57.8972 5.60512C57.8945 5.48279 57.7406 4.8972 57.6205 4.84213C54.9256 3.9701 50.9506 5.78176 50.2868 6.02249Z" fill="url(#paint1_linear_509_5843)"/>
<g filter="url(#filter4_d_509_5843)">
<path d="M58.6893 32.8423L44.3475 38.0432L34.859 11.8775C40.4027 9.74332 45.7865 8.53426 46.3339 8.33575C46.7718 8.17695 47.2061 8.3498 47.3685 8.45607L48.2443 8.13847C50.6268 6.7377 56.0799 4.33078 58.8326 5.90922C64.0731 9.08775 68.1671 14.9118 72.6173 23.0843C77.0674 31.2568 77.8698 35.1776 78.2151 38.5209C78.5604 41.8642 73.552 46.158 72.4476 46.1869C71.3431 46.2157 63.1142 35.8212 61.7824 34.1982C60.7169 32.8999 59.2764 32.7533 58.6893 32.8423Z" fill="url(#paint2_linear_509_5843)"/>
<path d="M30.0057 43.244L44.3475 38.0432L34.859 11.8775C29.2358 13.7928 24.3285 16.3156 23.7811 16.5141C23.3431 16.6729 23.1206 17.084 23.064 17.2697L22.1882 17.5873C19.4616 18.0392 13.7333 19.6871 12.6322 22.663C10.6471 28.4618 11.2378 35.5563 13.0604 44.6816C14.883 53.8069 16.7802 57.3307 18.6582 60.1182C20.5362 62.9057 27.1326 62.9912 27.9989 62.3054C28.8651 61.6197 28.5186 48.3666 28.5006 46.2673C28.4862 44.5878 29.498 43.552 30.0057 43.244Z" fill="url(#paint3_linear_509_5843)"/>
</g>
<g filter="url(#filter5_i_509_5843)">
<path d="M18.619 24.4157L18.003 24.6391L17.3946 24.8597C17.1102 24.9629 16.8777 25.1738 16.7473 25.4468C16.6049 25.7451 16.5974 26.0902 16.7267 26.3943L17.1324 27.3489C17.2826 27.7024 17.5439 27.9973 17.8767 28.189C18.816 28.7302 20.0213 28.294 20.4124 27.283C20.5557 26.9123 20.5725 26.5007 20.4573 26.1204L20.1778 25.1969C20.0732 24.8512 19.8187 24.571 19.4846 24.4338C19.2084 24.3204 18.8997 24.3139 18.619 24.4157Z" fill="#DDE3F1"/>
</g>
<path d="M18.3803 23.7577L17.7644 23.9811L17.156 24.2017C16.6988 24.3675 16.3251 24.7064 16.1156 25.1453C15.8867 25.6247 15.8747 26.1792 16.0825 26.6682L16.4882 27.6227C16.6979 28.1162 17.0627 28.5279 17.5272 28.7956C18.8447 29.5546 20.5219 28.9403 21.0652 27.5355C21.2643 27.0207 21.2881 26.4489 21.1273 25.9176L20.8478 24.9941C20.6823 24.447 20.2793 24.0035 19.7506 23.7863L19.4846 24.4338L19.7506 23.7863C19.3133 23.6067 18.8248 23.5965 18.3803 23.7577Z" stroke="#7A7E8A" stroke-width="1.4"/>
<path d="M18.3069 25.3921L18.9866 25.7934L18.0423 26.1358L18.3069 25.3921Z" fill="#9096A4"/>
<g filter="url(#filter6_i_509_5843)">
<path d="M22.2557 34.447L21.6397 34.6704L21.0313 34.891C20.7469 34.9941 20.4333 34.9813 20.1582 34.8553C19.8577 34.7176 19.6308 34.4576 19.535 34.1412L19.2346 33.1485C19.1233 32.7809 19.1348 32.387 19.2674 32.0266C19.6414 31.0091 20.8462 30.5713 21.7944 31.0967C22.142 31.2893 22.4187 31.5945 22.5741 31.9603L22.9515 32.8483C23.0928 33.1806 23.077 33.5588 22.9085 33.8782C22.7692 34.1424 22.5365 34.3452 22.2557 34.447Z" fill="#DDE3F1"/>
</g>
<path d="M22.4943 35.1051L21.8784 35.3284L21.27 35.5491C20.8128 35.7149 20.3087 35.6942 19.8666 35.4917C19.3837 35.2704 19.0189 34.8524 18.865 34.344L18.5646 33.3513C18.4093 32.8381 18.4254 32.2883 18.6104 31.785C19.135 30.358 20.8162 29.7544 22.1337 30.4844C22.6165 30.7519 23.0012 31.1756 23.2184 31.6865L23.5958 32.5744C23.8194 33.1005 23.7944 33.6992 23.5277 34.2048L22.9085 33.8782L23.5277 34.2048C23.3072 34.6229 22.9388 34.9439 22.4943 35.1051Z" stroke="#7A7E8A" stroke-width="1.4"/>
<path d="M21.3909 33.898L21.6554 33.1543L20.7112 33.4968L21.3909 33.898Z" fill="#9096A4"/>
<g filter="url(#filter7_i_509_5843)">
<path d="M25.0784 28.4149L24.855 27.7989L24.6344 27.1905C24.5312 26.9061 24.3204 26.6736 24.0473 26.5432C23.749 26.4008 23.404 26.3933 23.0998 26.5226L22.1453 26.9283C21.7918 27.0785 21.4969 27.3398 21.3051 27.6726C20.7639 28.6119 21.2001 29.8172 22.2112 30.2083C22.5818 30.3516 22.9934 30.3684 23.3738 30.2532L24.2973 29.9737C24.6429 29.8691 24.9231 29.6146 25.0603 29.2805C25.1738 29.0043 25.1802 28.6956 25.0784 28.4149Z" fill="#DDE3F1"/>
</g>
<path d="M25.7365 28.1762L25.5131 27.5603L25.2925 26.9519C25.1267 26.4947 24.7878 26.121 24.3489 25.9115C23.8695 25.6826 23.3149 25.6706 22.826 25.8784L21.8714 26.2841C21.378 26.4938 20.9663 26.8586 20.6986 27.3231C19.9395 28.6406 20.5539 30.3178 21.9587 30.8611C22.4735 31.0602 23.0452 31.084 23.5766 30.9232L24.5 30.6437C25.0471 30.4782 25.4907 30.0752 25.7078 29.5465C25.8874 29.1092 25.8976 28.6207 25.7365 28.1762Z" stroke="#7A7E8A" stroke-width="1.4"/>
<path d="M24.102 28.1038L23.7008 28.7835L23.3583 27.8392L24.102 28.1038Z" fill="#9096A4"/>
<g filter="url(#filter8_i_509_5843)">
<path d="M15.0462 32.0516L14.8228 31.4356L14.6022 30.8272C14.499 30.5428 14.5118 30.2292 14.6379 29.9541C14.7756 29.6536 15.0356 29.4267 15.3519 29.3309L16.3447 29.0305C16.7123 28.9192 17.1061 28.9307 17.4666 29.0633C18.4841 29.4373 18.9218 30.6421 18.3964 31.5903C18.2038 31.9379 17.8987 32.2146 17.5329 32.37L16.6449 32.7474C16.3126 32.8887 15.9343 32.8729 15.6149 32.7044C15.3508 32.5651 15.148 32.3324 15.0462 32.0516Z" fill="#DDE3F1"/>
</g>
<path d="M14.3881 32.2902L14.1647 31.6743L13.9441 31.0659C13.7783 30.6087 13.7989 30.1046 14.0015 29.6625C14.2228 29.1796 14.6407 28.8148 15.1492 28.6609L16.1419 28.3605C16.6551 28.2052 17.2049 28.2213 17.7082 28.4063C19.1352 28.9309 19.7387 30.6121 19.0087 31.9296C18.7412 32.4124 18.3176 32.7971 17.8067 33.0143L16.9187 33.3917C16.3927 33.6152 15.7939 33.5903 15.2884 33.3236C14.8702 33.1031 14.5493 32.7347 14.3881 32.2902Z" stroke="#7A7E8A" stroke-width="1.4"/>
<path d="M15.5961 31.1858L16.3398 31.4504L15.9974 30.5061L15.5961 31.1858Z" fill="#9096A4"/>
<g filter="url(#filter9_d_509_5843)">
<rect x="20.8047" y="20.2031" width="1.82557" height="3.5107" rx="0.912783" transform="rotate(-28.9831 20.8047 20.2031)" fill="#E7EBF3"/>
<rect x="21.2804" y="20.3397" width="1.12557" height="2.8107" rx="0.562783" transform="rotate(-28.9831 21.2804 20.3397)" stroke="#7D838F" stroke-width="0.7"/>
</g>
<path d="M24.0698 22.1979L21.9973 20.7575" stroke="#9FA2A8" stroke-width="0.84"/>
<path d="M26.0235 21.427L24.4834 17.5195" stroke="#9FA2A8" stroke-width="0.84"/>
<path d="M27.9771 20.6569L28.5095 18.1898" stroke="#9FA2A8" stroke-width="0.84"/>
<g filter="url(#filter10_d_509_5843)">
<rect width="1.82557" height="3.5107" rx="0.912783" transform="matrix(-0.98202 0.188778 0.188778 0.98202 50.9326 9.2793)" fill="#E7EBF3"/>
<rect x="-0.277635" y="0.409779" width="1.12557" height="2.8107" rx="0.562783" transform="matrix(-0.98202 0.188778 0.188778 0.98202 50.305 9.33908)" stroke="#7D838F" stroke-width="0.7"/>
</g>
<path d="M44.7179 13.9853L49.9824 12.0762" stroke="#9FA2A8" stroke-width="0.7"/>
<path d="M44.1222 12.3407L49.3867 10.4316" stroke="#9FA2A8" stroke-width="0.7"/>
<path d="M43.5255 10.6942L48.79 8.78516" stroke="#9FA2A8" stroke-width="0.7"/>
<g filter="url(#filter11_f_509_5843)">
<path d="M20.2588 18.0195C21.1922 17.7016 23.247 17.3801 23.7018 18.4982" stroke="url(#paint4_linear_509_5843)" stroke-width="0.7"/>
</g>
<g filter="url(#filter12_f_509_5843)">
<path d="M49.9717 7.24609C49.0515 7.60036 47.2682 8.67062 47.6358 9.82041" stroke="url(#paint5_linear_509_5843)" stroke-width="0.7"/>
</g>
<path d="M57.8996 10.9092C58.2486 11.8716 57.7513 12.9348 56.7889 13.2838C55.8264 13.6328 54.7633 13.1355 54.4143 12.1731C54.0653 11.2106 54.5625 10.1475 55.525 9.79847C56.4874 9.44946 57.5506 9.94674 57.8996 10.9092Z" fill="#DFE5F3" stroke="#5F636E" stroke-width="0.7"/>
<path d="M57.6812 10.9899C57.9866 11.8319 57.5515 12.762 56.7095 13.0673C55.8675 13.3727 54.9374 12.9376 54.6321 12.0956C54.3267 11.2536 54.7618 10.3235 55.6038 10.0182C56.4458 9.71284 57.3759 10.1479 57.6812 10.9899Z" stroke="#BBC1CF" stroke-width="0.7"/>
<path d="M55.9369 11.8026L56.0404 11.2197L56.4935 11.6007L55.9369 11.8026Z" stroke="#999FAD" stroke-width="1.05"/>
<path d="M61.0217 19.5244C61.3707 20.4869 60.8734 21.55 59.911 21.899C58.9485 22.248 57.8854 21.7507 57.5364 20.7883C57.1873 19.8259 57.6846 18.7627 58.6471 18.4137C59.6095 18.0647 60.6726 18.562 61.0217 19.5244Z" fill="#DFE5F3" stroke="#5F636E" stroke-width="0.7"/>
<path d="M60.8033 19.6051C61.1087 20.4471 60.6736 21.3772 59.8316 21.6826C58.9896 21.9879 58.0595 21.5529 57.7541 20.7109C57.4488 19.8689 57.8839 18.9388 58.7259 18.6334C59.5679 18.3281 60.498 18.7631 60.8033 19.6051Z" stroke="#BBC1CF" stroke-width="0.7"/>
<path d="M57.9424 19.5312L60.5425 20.7474" stroke="#999FAD" stroke-width="1.05"/>
<path d="M59.8506 18.8398L58.6344 21.4399" stroke="#999FAD" stroke-width="1.05"/>
<path d="M62.6025 16.05C61.6401 16.399 60.5769 15.9017 60.2279 14.9393C59.8789 13.9768 60.3762 12.9137 61.3386 12.5647C62.3011 12.2157 63.3642 12.7129 63.7132 13.6754C64.0623 14.6378 63.565 15.701 62.6025 16.05Z" fill="#DFE5F3" stroke="#5F636E" stroke-width="0.7"/>
<path d="M62.5238 15.8316C61.6818 16.137 60.7517 15.7019 60.4463 14.8599C60.141 14.0179 60.576 13.0878 61.418 12.7825C62.26 12.4771 63.1902 12.9122 63.4955 13.7542C63.8008 14.5962 63.3658 15.5263 62.5238 15.8316Z" stroke="#BBC1CF" stroke-width="0.7"/>
<path d="M62.7307 14.0313C62.883 14.4512 62.666 14.9151 62.2461 15.0674C61.8261 15.2197 61.3623 15.0027 61.21 14.5828C61.0577 14.1628 61.2747 13.6989 61.6946 13.5467C62.1146 13.3944 62.5784 13.6113 62.7307 14.0313Z" stroke="#999FAD" stroke-width="1.05"/>
<path d="M53.9893 19.175C53.0268 19.524 51.9637 19.0267 51.6147 18.0643C51.2656 17.1018 51.7629 16.0387 52.7254 15.6897C53.6878 15.3407 54.751 15.8379 55.1 16.8004C55.449 17.7628 54.9517 18.826 53.9893 19.175Z" fill="#DFE5F3" stroke="#5F636E" stroke-width="0.7"/>
<path d="M53.9095 18.9566C53.0675 19.262 52.1374 18.8269 51.8321 17.9849C51.5267 17.1429 51.9618 16.2128 52.8038 15.9075C53.6458 15.6021 54.5759 16.0372 54.8812 16.8792C55.1866 17.7212 54.7515 18.6513 53.9095 18.9566Z" stroke="#BBC1CF" stroke-width="0.7"/>
<rect x="52.6178" y="17.0861" width="1.1537" height="1.1537" transform="rotate(-19.9323 52.6178 17.0861)" stroke="#999FAD" stroke-width="1.05"/>
<path fill-rule="evenodd" clip-rule="evenodd" d="M24.5794 62.5941C24.7464 62.4307 24.9368 61.8106 25.0174 60.3996C25.0414 59.9782 24.9313 58.9926 24.7767 57.6089C24.2844 53.2017 23.341 44.7559 24.8443 37.638C25.8226 33.1576 26.1664 32.4267 26.4388 31.8474C26.5085 31.6992 26.5736 31.5608 26.6434 31.372C26.7061 31.2026 26.809 30.9958 26.9303 30.7521C27.4718 29.6639 28.3797 27.8391 27.714 25.3086C28.0965 26.1363 29.0238 27.8316 31.3584 27.8733L39.5756 25.0169L44.2809 37.9922L35.8851 41.0368C35.394 41.3837 35.1355 41.5553 34.6557 41.7293C34.3409 41.8435 33.6585 42.0229 33.0103 42.1934C32.424 42.3475 31.8657 42.4943 31.6327 42.5788C31.5886 42.5948 31.5285 42.6106 31.4551 42.6299C30.7118 42.8255 28.6059 43.3797 27.9614 48.1049C27.5148 51.3793 27.8138 56.0191 27.9855 58.6836C28.0316 59.399 28.0685 59.9719 28.0793 60.3379C28.1037 60.802 27.9615 62.1904 27.8345 62.3845C27.7632 62.4936 26.8423 62.6286 26.0804 62.6505C25.4863 62.6675 25.0349 62.6595 24.5794 62.5941ZM75.1725 44.2477C74.9396 44.2293 74.3959 43.8754 73.4297 42.844C73.1411 42.5359 72.5939 41.7089 71.8256 40.5478C69.3786 36.8494 64.6891 29.762 58.9729 25.2622C55.3501 22.4502 54.6178 22.1096 54.0374 21.8396C53.8888 21.7705 53.7502 21.706 53.5756 21.6058C53.4188 21.516 53.2073 21.4232 52.958 21.3139C51.8449 20.8257 49.9784 20.007 48.8673 17.638C49.1043 18.5185 49.4792 20.4141 47.714 21.9425L39.5758 25.0171L44.2811 37.9924L52.7859 34.9082C52.8641 34.9019 52.9354 34.8965 53.0014 34.8915C53.442 34.8582 53.6472 34.8427 54.0644 34.6914C54.3793 34.5772 55.0181 34.2775 55.6248 33.9929C56.1737 33.7354 56.6963 33.4902 56.9293 33.4057C56.9734 33.3897 57.0297 33.3633 57.0984 33.3311C57.7942 33.0048 59.7659 32.0804 63.2893 35.2941C65.731 37.5211 68.4755 41.2741 70.0516 43.4294C70.4747 44.008 70.8136 44.4714 71.0399 44.7593C71.3186 45.1311 72.3177 46.1057 72.5396 46.1733C72.6643 46.2112 73.423 45.7989 74.0218 45.3273C74.4887 44.9596 75.1523 44.3622 75.1725 44.2477Z" fill="url(#paint6_linear_509_5843)"/>
<path fill-rule="evenodd" clip-rule="evenodd" d="M39.4013 24.5351L47.025 21.7705C47.7085 21.5033 49.0469 20.4818 48.9318 18.5332C48.7879 16.0974 47.9994 9.84513 47.303 9.11405C46.7458 8.52919 45.2996 8.8569 44.6462 9.09387C42.6001 9.68157 37.7927 11.1279 34.9323 12.2114L39.4013 24.5351ZM39.4014 24.536L31.7777 27.3006C31.0817 27.5337 29.3997 27.6075 28.239 26.038C26.7882 24.0761 23.3859 18.7718 23.4518 17.7642C23.5046 16.9582 24.8247 16.2828 25.4781 16.0458C27.4254 15.1854 32.0423 13.2141 34.9324 12.2124L39.4014 24.536Z" fill="url(#paint7_linear_509_5843)"/>
<path fill-rule="evenodd" clip-rule="evenodd" d="M39.5819 25.0332L47.2056 22.2686C47.8891 22.0014 49.2275 20.9799 49.1124 19.0312C48.9685 16.5955 48.18 10.3432 47.4836 9.61213C46.9264 9.02727 45.4802 9.35498 44.8268 9.59194C42.7806 10.1796 37.9733 11.6259 35.1129 12.7095L39.5819 25.0332ZM39.5819 25.0337L31.9582 27.7983C31.2623 28.0314 29.5802 28.1052 28.4196 26.5357C26.9687 24.5739 23.5664 19.2695 23.6324 18.2619C23.6851 17.4559 25.0052 16.7805 25.6587 16.5435C27.6059 15.6831 32.2229 13.7118 35.1129 12.7101L39.5819 25.0337Z" fill="url(#paint8_linear_509_5843)"/>
<path fill-rule="evenodd" clip-rule="evenodd" d="M39.3327 24.3479L32.0999 26.9707C31.4394 27.1909 29.8344 27.2355 28.699 25.6521C27.2798 23.6729 23.9395 18.3306 23.9852 17.3281C24.0217 16.5261 25.2707 15.876 25.8907 15.6512C27.7354 14.8275 32.1105 12.9433 34.8531 11.9951L39.3327 24.3479ZM39.333 24.3479L46.5657 21.7251C47.2139 21.4707 48.4744 20.4762 48.331 18.5331C48.1517 16.1043 47.2912 9.86268 46.6136 9.12247C46.0715 8.53029 44.6961 8.83187 44.0761 9.05668C42.1323 9.60693 37.5663 10.965 34.8535 11.9952L39.333 24.3479Z" fill="url(#paint9_linear_509_5843)"/>
<ellipse cx="37.7407" cy="27.1011" rx="0.347953" ry="0.347952" transform="rotate(-19.9323 37.7407 27.1011)" fill="#111119"/>
<ellipse cx="38.642" cy="27.8862" rx="0.347953" ry="0.347952" transform="rotate(-19.9323 38.642 27.8862)" fill="#111119"/>
<ellipse cx="38.8315" cy="26.7065" rx="0.347953" ry="0.347952" transform="rotate(-19.9323 38.8315 26.7065)" fill="#111119"/>
<ellipse cx="39.7319" cy="27.4897" rx="0.347953" ry="0.347952" transform="rotate(-19.9323 39.7319 27.4897)" fill="#111119"/>
<ellipse cx="39.9213" cy="26.3101" rx="0.347953" ry="0.347952" transform="rotate(-19.9323 39.9213 26.3101)" fill="#111119"/>
<ellipse cx="40.8227" cy="27.0933" rx="0.347953" ry="0.347952" transform="rotate(-19.9323 40.8227 27.0933)" fill="#111119"/>
<ellipse cx="41.0121" cy="25.9155" rx="0.347953" ry="0.347952" transform="rotate(-19.9323 41.0121 25.9155)" fill="#111119"/>
<ellipse cx="41.9125" cy="26.6987" rx="0.347953" ry="0.347952" transform="rotate(-19.9323 41.9125 26.6987)" fill="#111119"/>
<ellipse cx="42.102" cy="25.521" rx="0.347953" ry="0.347952" transform="rotate(-19.9323 42.102 25.521)" fill="#111119"/>
<g filter="url(#filter13_f_509_5843)">
<rect x="41.2422" y="34.7168" width="3.36354" height="0.927873" rx="0.463937" transform="rotate(-19.9323 41.2422 34.7168)" fill="url(#paint10_linear_509_5843)"/>
<rect x="41.5393" y="34.8558" width="2.8996" height="0.463937" rx="0.231968" transform="rotate(-19.9323 41.5393 34.8558)" stroke="black" stroke-width="0.463937"/>
</g>
<g filter="url(#filter14_f_509_5843)">
<ellipse cx="43.5502" cy="35.978" rx="0.347953" ry="0.347952" transform="rotate(-19.9323 43.5502 35.978)" fill="#333A42"/>
</g>
<rect x="43.6172" y="37.1855" width="0.695905" height="0.231968" rx="0.115984" transform="rotate(-19.9323 43.6172 37.1855)" fill="#1B1B1B"/>
<g opacity="0.95" filter="url(#filter15_f_509_5843)">
<ellipse cx="31.9223" cy="36.229" rx="6.03118" ry="6.03118" transform="rotate(-19.9323 31.9223 36.229)" fill="url(#paint11_radial_509_5843)"/>
</g>
<g opacity="0.5" filter="url(#filter16_f_509_5843)">
<ellipse cx="31.9223" cy="36.229" rx="6.03118" ry="6.03118" transform="rotate(-19.9323 31.9223 36.229)" fill="url(#paint12_radial_509_5843)"/>
</g>
<ellipse cx="31.848" cy="36.194" rx="4.34941" ry="4.34941" transform="rotate(-19.9323 31.848 36.194)" fill="#181A1D"/>
<ellipse cx="31.8477" cy="36.1937" rx="4.11744" ry="4.11744" transform="rotate(-19.9323 31.8477 36.1937)" fill="#1F2125"/>
<ellipse cx="31.8474" cy="36.1934" rx="3.88547" ry="3.88547" transform="rotate(-19.9323 31.8474 36.1934)" fill="#1F232C"/>
<ellipse cx="31.8476" cy="36.1945" rx="4.00145" ry="4.00145" transform="rotate(-19.9323 31.8476 36.1945)" fill="black"/>
<path d="M35.391 34.9091C36.1007 36.8662 35.0895 39.0281 33.1323 39.7378C31.1752 40.4476 29.0133 39.4363 28.3036 37.4792C27.5939 35.5221 28.6051 33.3602 30.5622 32.6505C32.5194 31.9408 34.6813 32.952 35.391 34.9091ZM29.7332 36.9608C30.1566 38.1284 31.4463 38.7317 32.6139 38.3083C33.7815 37.8849 34.3848 36.5951 33.9614 35.4275C33.538 34.2599 32.2482 33.6566 31.0806 34.08C29.913 34.5035 29.3098 35.7932 29.7332 36.9608Z" fill="url(#paint13_radial_509_5843)"/>
<ellipse cx="31.8476" cy="36.1942" rx="2.37768" ry="2.37768" transform="rotate(-19.9323 31.8476 36.1942)" fill="url(#paint14_radial_509_5843)"/>
<g opacity="0.95" filter="url(#filter17_f_509_5843)">
<ellipse cx="52.6381" cy="28.7154" rx="6.03118" ry="6.03118" transform="rotate(-19.9323 52.6381 28.7154)" fill="url(#paint15_radial_509_5843)"/>
</g>
<g opacity="0.5" filter="url(#filter18_f_509_5843)">
<ellipse cx="52.6381" cy="28.7154" rx="6.03118" ry="6.03118" transform="rotate(-19.9323 52.6381 28.7154)" fill="url(#paint16_radial_509_5843)"/>
</g>
<ellipse cx="52.5638" cy="28.6803" rx="4.34941" ry="4.34941" transform="rotate(-19.9323 52.5638 28.6803)" fill="#181A1D"/>
<ellipse cx="52.5635" cy="28.682" rx="4.11744" ry="4.11744" transform="rotate(-19.9323 52.5635 28.682)" fill="#1F2125"/>
<ellipse cx="52.5632" cy="28.6797" rx="3.88547" ry="3.88547" transform="rotate(-19.9323 52.5632 28.6797)" fill="#1F232C"/>
<ellipse cx="52.5634" cy="28.6808" rx="4.00145" ry="4.00145" transform="rotate(-19.9323 52.5634 28.6808)" fill="black"/>
<path d="M56.1078 27.3954C56.8175 29.3526 55.8063 31.5145 53.8491 32.2242C51.892 32.9339 49.7301 31.9227 49.0204 29.9656C48.3107 28.0084 49.3219 25.8465 51.279 25.1368C53.2362 24.4271 55.398 25.4383 56.1078 27.3954ZM50.45 29.4472C50.8734 30.6147 52.1631 31.218 53.3307 30.7946C54.4983 30.3712 55.1016 29.0814 54.6782 27.9138C54.2548 26.7462 52.965 26.143 51.7974 26.5664C50.6298 26.9898 50.0265 28.2796 50.45 29.4472Z" fill="url(#paint17_radial_509_5843)"/>
<ellipse cx="52.5634" cy="28.6805" rx="2.37768" ry="2.37768" transform="rotate(-19.9323 52.5634 28.6805)" fill="url(#paint18_radial_509_5843)"/>
<g filter="url(#filter19_f_509_5843)">
<path d="M41.1467 24.2482L37.7666 25.4739L39.2581 24.6989C39.3113 24.6712 39.3679 24.6505 39.4264 24.6373L41.1467 24.2482Z" fill="white"/>
</g>
<defs>
<filter id="filter0_f_509_5843" x="46.9512" y="21.8809" width="53.251" height="46.4765" filterUnits="userSpaceOnUse" color-interpolation-filters="sRGB">
<feFlood flood-opacity="0" result="BackgroundImageFix"/>
<feBlend mode="normal" in="SourceGraphic" in2="BackgroundImageFix" result="shape"/>
<feGaussianBlur stdDeviation="10.5" result="effect1_foregroundBlur_509_5843"/>
</filter>
<filter id="filter1_f_509_5843" x="66.2262" y="39.0484" width="15.5633" height="12.8152" filterUnits="userSpaceOnUse" color-interpolation-filters="sRGB">
<feFlood flood-opacity="0" result="BackgroundImageFix"/>
<feBlend mode="normal" in="SourceGraphic" in2="BackgroundImageFix" result="shape"/>
<feGaussianBlur stdDeviation="2.8" result="effect1_foregroundBlur_509_5843"/>
</filter>
<filter id="filter2_f_509_5843" x="0.173836" y="38.8438" width="53.2519" height="46.4765" filterUnits="userSpaceOnUse" color-interpolation-filters="sRGB">
<feFlood flood-opacity="0" result="BackgroundImageFix"/>
<feBlend mode="normal" in="SourceGraphic" in2="BackgroundImageFix" result="shape"/>
<feGaussianBlur stdDeviation="10.5" result="effect1_foregroundBlur_509_5843"/>
</filter>
<filter id="filter3_f_509_5843" x="18.9039" y="56.2105" width="15.5633" height="12.8152" filterUnits="userSpaceOnUse" color-interpolation-filters="sRGB">
<feFlood flood-opacity="0" result="BackgroundImageFix"/>
<feBlend mode="normal" in="SourceGraphic" in2="BackgroundImageFix" result="shape"/>
<feGaussianBlur stdDeviation="2.8" result="effect1_foregroundBlur_509_5843"/>
</filter>
<filter id="filter4_d_509_5843" x="9.29356" y="2.59258" width="71.0389" height="61.4715" filterUnits="userSpaceOnUse" color-interpolation-filters="sRGB">
<feFlood flood-opacity="0" result="BackgroundImageFix"/>
<feColorMatrix in="SourceAlpha" type="matrix" values="0 0 0 0 0 0 0 0 0 0 0 0 0 0 0 0 0 0 127 0" result="hardAlpha"/>
<feOffset dy="-0.7"/>
<feGaussianBlur stdDeviation="1.05"/>
<feComposite in2="hardAlpha" operator="out"/>
<feColorMatrix type="matrix" values="0 0 0 0 0 0 0 0 0 0 0 0 0 0 0 0 0 0 0.15 0"/>
<feBlend mode="normal" in2="BackgroundImageFix" result="effect1_dropShadow_509_5843"/>
<feBlend mode="normal" in="SourceGraphic" in2="effect1_dropShadow_509_5843" result="shape"/>
</filter>
<filter id="filter5_i_509_5843" x="15.2344" y="20.1434" width="6.69922" height="9.68086" filterUnits="userSpaceOnUse" color-interpolation-filters="sRGB">
<feFlood flood-opacity="0" result="BackgroundImageFix"/>
<feBlend mode="normal" in="SourceGraphic" in2="BackgroundImageFix" result="shape"/>
<feColorMatrix in="SourceAlpha" type="matrix" values="0 0 0 0 0 0 0 0 0 0 0 0 0 0 0 0 0 0 127 0" result="hardAlpha"/>
<feOffset dy="-2.8"/>
<feGaussianBlur stdDeviation="1.4"/>
<feComposite in2="hardAlpha" operator="arithmetic" k2="-1" k3="1"/>
<feColorMatrix type="matrix" values="0 0 0 0 0 0 0 0 0 0 0 0 0 0 0 0 0 0 0.25 0"/>
<feBlend mode="normal" in2="shape" result="effect1_innerShadow_509_5843"/>
</filter>
<filter id="filter6_i_509_5843" x="17.7588" y="29.4727" width="6.68848" height="9.68672" filterUnits="userSpaceOnUse" color-interpolation-filters="sRGB">
<feFlood flood-opacity="0" result="BackgroundImageFix"/>
<feBlend mode="normal" in="SourceGraphic" in2="BackgroundImageFix" result="shape"/>
<feColorMatrix in="SourceAlpha" type="matrix" values="0 0 0 0 0 0 0 0 0 0 0 0 0 0 0 0 0 0 127 0" result="hardAlpha"/>
<feOffset dy="2.8"/>
<feGaussianBlur stdDeviation="1.4"/>
<feComposite in2="hardAlpha" operator="arithmetic" k2="-1" k3="1"/>
<feColorMatrix type="matrix" values="0 0 0 0 0 0 0 0 0 0 0 0 0 0 0 0 0 0 0.25 0"/>
<feBlend mode="normal" in2="shape" result="effect1_innerShadow_509_5843"/>
</filter>
<filter id="filter7_i_509_5843" x="19.6699" y="25.0312" width="9.68086" height="6.69727" filterUnits="userSpaceOnUse" color-interpolation-filters="sRGB">
<feFlood flood-opacity="0" result="BackgroundImageFix"/>
<feBlend mode="normal" in="SourceGraphic" in2="BackgroundImageFix" result="shape"/>
<feColorMatrix in="SourceAlpha" type="matrix" values="0 0 0 0 0 0 0 0 0 0 0 0 0 0 0 0 0 0 127 0" result="hardAlpha"/>
<feOffset dx="2.8"/>
<feGaussianBlur stdDeviation="1.4"/>
<feComposite in2="hardAlpha" operator="arithmetic" k2="-1" k3="1"/>
<feColorMatrix type="matrix" values="0 0 0 0 0 0 0 0 0 0 0 0 0 0 0 0 0 0 0.25 0"/>
<feBlend mode="normal" in2="shape" result="effect1_innerShadow_509_5843"/>
</filter>
<filter id="filter8_i_509_5843" x="10.3328" y="27.5547" width="9.68672" height="6.6875" filterUnits="userSpaceOnUse" color-interpolation-filters="sRGB">
<feFlood flood-opacity="0" result="BackgroundImageFix"/>
<feBlend mode="normal" in="SourceGraphic" in2="BackgroundImageFix" result="shape"/>
<feColorMatrix in="SourceAlpha" type="matrix" values="0 0 0 0 0 0 0 0 0 0 0 0 0 0 0 0 0 0 127 0" result="hardAlpha"/>
<feOffset dx="-2.8"/>
<feGaussianBlur stdDeviation="1.4"/>
<feComposite in2="hardAlpha" operator="arithmetic" k2="-1" k3="1"/>
<feColorMatrix type="matrix" values="0 0 0 0 0 0 0 0 0 0 0 0 0 0 0 0 0 0 0.25 0"/>
<feBlend mode="normal" in2="shape" result="effect1_innerShadow_509_5843"/>
</filter>
<filter id="filter9_d_509_5843" x="18.3328" y="16.8465" width="8.24258" height="8.90078" filterUnits="userSpaceOnUse" color-interpolation-filters="sRGB">
<feFlood flood-opacity="0" result="BackgroundImageFix"/>
<feColorMatrix in="SourceAlpha" type="matrix" values="0 0 0 0 0 0 0 0 0 0 0 0 0 0 0 0 0 0 127 0" result="hardAlpha"/>
<feOffset/>
<feGaussianBlur stdDeviation="1.4"/>
<feComposite in2="hardAlpha" operator="out"/>
<feColorMatrix type="matrix" values="0 0 0 0 0.128333 0 0 0 0 0.130333 0 0 0 0 0.133333 0 0 0 0.2 0"/>
<feBlend mode="normal" in2="BackgroundImageFix" result="effect1_dropShadow_509_5843"/>
<feBlend mode="normal" in="SourceGraphic" in2="effect1_dropShadow_509_5843" result="shape"/>
</filter>
<filter id="filter10_d_509_5843" x="46.4959" y="6.63555" width="7.74355" height="9.08047" filterUnits="userSpaceOnUse" color-interpolation-filters="sRGB">
<feFlood flood-opacity="0" result="BackgroundImageFix"/>
<feColorMatrix in="SourceAlpha" type="matrix" values="0 0 0 0 0 0 0 0 0 0 0 0 0 0 0 0 0 0 127 0" result="hardAlpha"/>
<feOffset/>
<feGaussianBlur stdDeviation="1.4"/>
<feComposite in2="hardAlpha" operator="out"/>
<feColorMatrix type="matrix" values="0 0 0 0 0.128333 0 0 0 0 0.130333 0 0 0 0 0.133333 0 0 0 0.2 0"/>
<feBlend mode="normal" in2="BackgroundImageFix" result="effect1_dropShadow_509_5843"/>
<feBlend mode="normal" in="SourceGraphic" in2="effect1_dropShadow_509_5843" result="shape"/>
</filter>
<filter id="filter11_f_509_5843" x="19.7955" y="17.0191" width="4.58086" height="1.96172" filterUnits="userSpaceOnUse" color-interpolation-filters="sRGB">
<feFlood flood-opacity="0" result="BackgroundImageFix"/>
<feBlend mode="normal" in="SourceGraphic" in2="BackgroundImageFix" result="shape"/>
<feGaussianBlur stdDeviation="0.175" result="effect1_foregroundBlur_509_5843"/>
</filter>
<filter id="filter12_f_509_5843" x="46.8854" y="6.56992" width="3.5623" height="3.70781" filterUnits="userSpaceOnUse" color-interpolation-filters="sRGB">
<feFlood flood-opacity="0" result="BackgroundImageFix"/>
<feBlend mode="normal" in="SourceGraphic" in2="BackgroundImageFix" result="shape"/>
<feGaussianBlur stdDeviation="0.175" result="effect1_foregroundBlur_509_5843"/>
</filter>
<filter id="filter13_f_509_5843" x="40.6721" y="33.0012" width="4.61777" height="3.15781" filterUnits="userSpaceOnUse" color-interpolation-filters="sRGB">
<feFlood flood-opacity="0" result="BackgroundImageFix"/>
<feBlend mode="normal" in="SourceGraphic" in2="BackgroundImageFix" result="shape"/>
<feGaussianBlur stdDeviation="0.35" result="effect1_foregroundBlur_509_5843"/>
</filter>
<filter id="filter14_f_509_5843" x="42.5021" y="34.9309" width="2.09629" height="2.09531" filterUnits="userSpaceOnUse" color-interpolation-filters="sRGB">
<feFlood flood-opacity="0" result="BackgroundImageFix"/>
<feBlend mode="normal" in="SourceGraphic" in2="BackgroundImageFix" result="shape"/>
<feGaussianBlur stdDeviation="0.35" result="effect1_foregroundBlur_509_5843"/>
</filter>
<filter id="filter15_f_509_5843" x="25.1896" y="29.4953" width="13.4654" height="13.4664" filterUnits="userSpaceOnUse" color-interpolation-filters="sRGB">
<feFlood flood-opacity="0" result="BackgroundImageFix"/>
<feBlend mode="normal" in="SourceGraphic" in2="BackgroundImageFix" result="shape"/>
<feGaussianBlur stdDeviation="0.35" result="effect1_foregroundBlur_509_5843"/>
</filter>
<filter id="filter16_f_509_5843" x="25.1896" y="29.4953" width="13.4654" height="13.4664" filterUnits="userSpaceOnUse" color-interpolation-filters="sRGB">
<feFlood flood-opacity="0" result="BackgroundImageFix"/>
<feBlend mode="normal" in="SourceGraphic" in2="BackgroundImageFix" result="shape"/>
<feGaussianBlur stdDeviation="0.35" result="effect1_foregroundBlur_509_5843"/>
</filter>
<filter id="filter17_f_509_5843" x="45.9055" y="21.9816" width="13.4654" height="13.4664" filterUnits="userSpaceOnUse" color-interpolation-filters="sRGB">
<feFlood flood-opacity="0" result="BackgroundImageFix"/>
<feBlend mode="normal" in="SourceGraphic" in2="BackgroundImageFix" result="shape"/>
<feGaussianBlur stdDeviation="0.35" result="effect1_foregroundBlur_509_5843"/>
</filter>
<filter id="filter18_f_509_5843" x="45.9055" y="21.9816" width="13.4654" height="13.4664" filterUnits="userSpaceOnUse" color-interpolation-filters="sRGB">
<feFlood flood-opacity="0" result="BackgroundImageFix"/>
<feBlend mode="normal" in="SourceGraphic" in2="BackgroundImageFix" result="shape"/>
<feGaussianBlur stdDeviation="0.35" result="effect1_foregroundBlur_509_5843"/>
</filter>
<filter id="filter19_f_509_5843" x="34.9666" y="21.448" width="8.97988" height="6.82656" filterUnits="userSpaceOnUse" color-interpolation-filters="sRGB">
<feFlood flood-opacity="0" result="BackgroundImageFix"/>
<feBlend mode="normal" in="SourceGraphic" in2="BackgroundImageFix" result="shape"/>
<feGaussianBlur stdDeviation="1.4" result="effect1_foregroundBlur_509_5843"/>
</filter>
<linearGradient id="paint0_linear_509_5843" x1="20.1004" y1="17.5841" x2="12.5308" y2="22.0563" gradientUnits="userSpaceOnUse">
<stop offset="0.0669976" stop-color="#1A1D23"/>
<stop offset="0.15586" stop-color="#414753"/>
<stop offset="0.232782" stop-color="#111723"/>
<stop offset="0.718674" stop-color="#111723"/>
<stop offset="0.765885" stop-color="#656C74"/>
<stop offset="0.845901" stop-color="#181B21"/>
</linearGradient>
<linearGradient id="paint1_linear_509_5843" x1="49.869" y1="6.78917" x2="58.5457" y2="5.36993" gradientUnits="userSpaceOnUse">
<stop offset="0.0669976" stop-color="#1A1D23"/>
<stop offset="0.15586" stop-color="#414753"/>
<stop offset="0.232782" stop-color="#111723"/>
<stop offset="0.718674" stop-color="#111723"/>
<stop offset="0.765885" stop-color="#656C74"/>
<stop offset="0.845901" stop-color="#181B21"/>
</linearGradient>
<linearGradient id="paint2_linear_509_5843" x1="50.1403" y1="6.32211" x2="65.5208" y2="48.7356" gradientUnits="userSpaceOnUse">
<stop stop-color="#E8EDF4"/>
<stop offset="1" stop-color="#D2D5DF"/>
</linearGradient>
<linearGradient id="paint3_linear_509_5843" x1="19.5687" y1="17.4084" x2="34.9492" y2="59.8219" gradientUnits="userSpaceOnUse">
<stop stop-color="#E8EDF4"/>
<stop offset="1" stop-color="#D2D5DF"/>
</linearGradient>
<linearGradient id="paint4_linear_509_5843" x1="23.6623" y1="18.3892" x2="21.4432" y2="17.7134" gradientUnits="userSpaceOnUse">
<stop stop-color="#DCDCDC"/>
<stop offset="1" stop-color="#B4B5B7" stop-opacity="0"/>
</linearGradient>
<linearGradient id="paint5_linear_509_5843" x1="47.5962" y1="9.71138" x2="48.8663" y2="7.7703" gradientUnits="userSpaceOnUse">
<stop stop-color="#DCDCDC"/>
<stop offset="1" stop-color="#B4B5B7" stop-opacity="0"/>
</linearGradient>
<linearGradient id="paint6_linear_509_5843" x1="38.2634" y1="21.483" x2="50.1676" y2="54.3104" gradientUnits="userSpaceOnUse">
<stop stop-color="#252932"/>
<stop offset="1" stop-color="#161821"/>
</linearGradient>
<linearGradient id="paint7_linear_509_5843" x1="34.9306" y1="12.2072" x2="39.4015" y2="24.536" gradientUnits="userSpaceOnUse">
<stop stop-color="#E2E2E2"/>
<stop offset="0.758066" stop-color="#213189"/>
<stop offset="1" stop-color="#3B3E47"/>
</linearGradient>
<linearGradient id="paint8_linear_509_5843" x1="35.1113" y1="12.7052" x2="39.5821" y2="25.0339" gradientUnits="userSpaceOnUse">
<stop stop-color="#0C63F2"/>
<stop offset="0.84375" stop-color="#213189"/>
<stop offset="1" stop-color="#3B3E47"/>
</linearGradient>
<linearGradient id="paint9_linear_509_5843" x1="34.8516" y1="11.9908" x2="39.3328" y2="24.3481" gradientUnits="userSpaceOnUse">
<stop stop-color="#EBEFFA"/>
<stop offset="1" stop-color="#D9DDE8"/>
</linearGradient>
<linearGradient id="paint10_linear_509_5843" x1="42.924" y1="34.7168" x2="42.924" y2="35.6447" gradientUnits="userSpaceOnUse">
<stop stop-color="#303437"/>
<stop offset="0.604167" stop-color="#424648"/>
<stop offset="1" stop-color="#303437"/>
</linearGradient>
<radialGradient id="paint11_radial_509_5843" cx="0" cy="0" r="1" gradientUnits="userSpaceOnUse" gradientTransform="translate(31.9223 36.229) rotate(90) scale(6.03118 6.03118)">
<stop offset="0.671875" stop-color="#1F222B"/>
<stop offset="1" stop-color="#262C35"/>
</radialGradient>
<radialGradient id="paint12_radial_509_5843" cx="0" cy="0" r="1" gradientUnits="userSpaceOnUse" gradientTransform="translate(31.9223 30.4878) rotate(90) scale(11.7724 11.7724)">
<stop offset="0.112949" stop-color="#1F222B"/>
<stop offset="0.704384" stop-color="#262C35"/>
</radialGradient>
<radialGradient id="paint13_radial_509_5843" cx="0" cy="0" r="1" gradientUnits="userSpaceOnUse" gradientTransform="translate(31.8473 36.1942) rotate(70.0677) scale(3.76948 3.76949)">
<stop offset="0.639686" stop-color="#262A34"/>
<stop offset="0.696777" stop-color="#464A53"/>
<stop offset="0.836008" stop-color="#2F333C"/>
</radialGradient>
<radialGradient id="paint14_radial_509_5843" cx="0" cy="0" r="1" gradientUnits="userSpaceOnUse" gradientTransform="translate(30.5717 34.9184) rotate(32.125) scale(2.94449)">
<stop stop-color="#363A43"/>
<stop offset="1" stop-color="#232730"/>
</radialGradient>
<radialGradient id="paint15_radial_509_5843" cx="0" cy="0" r="1" gradientUnits="userSpaceOnUse" gradientTransform="translate(52.6381 28.7154) rotate(90) scale(6.03118 6.03118)">
<stop offset="0.671875" stop-color="#1F222B"/>
<stop offset="1" stop-color="#262C35"/>
</radialGradient>
<radialGradient id="paint16_radial_509_5843" cx="0" cy="0" r="1" gradientUnits="userSpaceOnUse" gradientTransform="translate(52.6381 22.9741) rotate(90) scale(11.7724 11.7724)">
<stop offset="0.112949" stop-color="#1F222B"/>
<stop offset="0.704384" stop-color="#262C35"/>
</radialGradient>
<radialGradient id="paint17_radial_509_5843" cx="0" cy="0" r="1" gradientUnits="userSpaceOnUse" gradientTransform="translate(52.5641 28.6805) rotate(70.0677) scale(3.76948 3.76949)">
<stop offset="0.639686" stop-color="#262A34"/>
<stop offset="0.696777" stop-color="#464A53"/>
<stop offset="0.836008" stop-color="#2F333C"/>
</radialGradient>
<radialGradient id="paint18_radial_509_5843" cx="0" cy="0" r="1" gradientUnits="userSpaceOnUse" gradientTransform="translate(51.2876 27.4047) rotate(32.125) scale(2.94449)">
<stop stop-color="#363A43"/>
<stop offset="1" stop-color="#232730"/>
</radialGradient>
</defs>
</svg>
