<svg width="17" height="17" viewBox="0 0 17 17" fill="none" xmlns="http://www.w3.org/2000/svg">
<path d="M5.83696 8.04031C5.83696 6.5663 7.03121 5.37106 8.5048 5.37106C9.97839 5.37106 11.1733 6.5663 11.1733 8.04031C11.1733 9.51433 9.97839 10.7096 8.5048 10.7096C7.03121 10.7096 5.83696 9.51433 5.83696 8.04031ZM4.39443 8.04031C4.39443 10.3111 6.23464 12.1519 8.5048 12.1519C10.775 12.1519 12.6152 10.3111 12.6152 8.04031C12.6152 5.7695 10.775 3.92876 8.5048 3.92876C6.23464 3.92876 4.39443 5.7695 4.39443 8.04031ZM11.8173 3.76573C11.8172 3.95577 11.8735 4.14157 11.979 4.29962C12.0845 4.45767 12.2344 4.58089 12.4099 4.65368C12.5854 4.72648 12.7786 4.74558 12.9649 4.70858C13.1513 4.67158 13.3225 4.58014 13.4568 4.44582C13.5912 4.31149 13.6828 4.14032 13.7199 3.95395C13.7571 3.76758 13.7381 3.57437 13.6655 3.39877C13.5929 3.22317 13.4698 3.07305 13.3119 2.96741C13.154 2.86177 12.9683 2.80534 12.7783 2.80527H12.7779C12.5232 2.80538 12.279 2.9066 12.0989 3.08669C11.9188 3.26677 11.8175 3.511 11.8173 3.76573ZM5.27086 14.5579C4.49042 14.5224 4.06623 14.3923 3.78434 14.2825C3.41061 14.1369 3.14395 13.9636 2.86359 13.6835C2.58323 13.4035 2.40969 13.137 2.26483 12.7632C2.15494 12.4813 2.02495 12.0569 1.98947 11.2762C1.95066 10.4322 1.94291 10.1787 1.94291 8.04038C1.94291 5.9021 1.9513 5.64926 1.98947 4.80454C2.02501 4.02388 2.15597 3.60028 2.26483 3.31759C2.41033 2.94376 2.58362 2.67702 2.86359 2.39658C3.14357 2.11614 3.40997 1.94255 3.78434 1.79765C4.06611 1.68773 4.49042 1.55769 5.27086 1.52221C6.11463 1.48339 6.36809 1.47564 8.5048 1.47564C10.6415 1.47564 10.8952 1.48403 11.7397 1.52221C12.5201 1.55776 12.9436 1.68875 13.2262 1.79765C13.6 1.94255 13.8666 2.11653 14.147 2.39658C14.4273 2.67664 14.6002 2.94376 14.7457 3.31759C14.8556 3.59944 14.9856 4.02388 15.0211 4.80454C15.0599 5.64926 15.0676 5.9021 15.0676 8.04038C15.0676 10.1787 15.0599 10.4315 15.0211 11.2762C14.9856 12.0569 14.8549 12.4812 14.7457 12.7632C14.6002 13.137 14.4269 13.4037 14.147 13.6835C13.867 13.9633 13.6 14.1369 13.2262 14.2825C12.9445 14.3924 12.5201 14.5224 11.7397 14.5579C10.8959 14.5967 10.6425 14.6045 8.5048 14.6045C6.36713 14.6045 6.11437 14.5967 5.27086 14.5579ZM5.20458 0.0816942C4.35242 0.120513 3.77012 0.255673 3.26159 0.453608C2.73494 0.658014 2.2891 0.932242 1.84359 1.37718C1.39807 1.82212 1.12463 2.26879 0.920284 2.79559C0.722405 3.30459 0.587284 3.88674 0.548477 4.73914C0.509029 5.59289 0.5 5.86584 0.5 8.04031C0.5 10.2148 0.509029 10.4877 0.548477 11.3415C0.587284 12.194 0.722405 12.776 0.920284 13.285C1.12463 13.8115 1.39814 14.2587 1.84359 14.7034C2.28904 15.1482 2.73494 15.422 3.26159 15.627C3.77108 15.825 4.35242 15.9601 5.20458 15.9989C6.05853 16.0378 6.33095 16.0474 8.5048 16.0474C10.6786 16.0474 10.9515 16.0384 11.805 15.9989C12.6572 15.9601 13.2392 15.825 13.748 15.627C14.2743 15.422 14.7205 15.1484 15.166 14.7034C15.6115 14.2585 15.8844 13.8115 16.0893 13.285C16.2872 12.776 16.423 12.1939 16.4611 11.3415C16.4999 10.4871 16.509 10.2148 16.509 8.04031C16.509 5.86584 16.4999 5.59289 16.4611 4.73914C16.4223 3.88667 16.2872 3.30427 16.0893 2.79559C15.8844 2.26911 15.6108 1.82282 15.166 1.37718C14.7212 0.931537 14.2743 0.658014 13.7486 0.453608C13.2392 0.255673 12.6572 0.119872 11.8057 0.0816942C10.9522 0.0428757 10.6793 0.0332031 8.50544 0.0332031C6.33159 0.0332031 6.05853 0.0422351 5.20458 0.0816942Z" fill="white"/>
</svg>
