<svg width="110" height="86" viewBox="0 0 110 86" fill="none" xmlns="http://www.w3.org/2000/svg">
<path d="M62.4927 67.5079V56.8295C77.2177 51.6588 91.5774 53.5042 96.9166 55.0731C100.57 55.8693 108.255 58.4031 109.773 62.1687C111.29 65.9342 104.832 69.3579 101.413 70.599L62.4927 84.5793V74.2522L91.7882 63.7845C93.5211 63.0117 96.0736 61.2132 92.4205 60.2016C88.7673 59.19 84.3414 59.9674 82.5851 60.4826L62.4927 67.5079Z" fill="white"/>
<path d="M82.0933 46.8536C77.0913 52.6424 69.4712 50.1554 66.2864 48.1884L66.0756 19.0334C65.8883 17.6752 64.8392 14.9166 62.1415 14.748C59.4438 14.5794 58.9567 17.5347 59.0504 19.0334V85.9141L41.1359 80.3642V0.908203C48.77 2.78161 66.2162 7.58222 74.9275 11.7974C83.6389 16.0126 85.8167 24.8878 85.8167 28.7986C86.263 37.5802 83.9433 45.1441 82.0933 46.8536Z" fill="white"/>
<path d="M37.6232 59.0775V48.8206C26.3374 52.544 2.9432 60.9041 1.09176 63.644C-2.04539 68.2865 1.44302 71.6528 13.3158 74.6034C22.8139 76.9639 33.4783 75.9148 37.6232 75.0952V65.7516L28.7011 69.0535C24.767 70.2899 20.6923 70.0838 19.1467 69.8262C14.0885 68.7584 17.0392 66.6649 19.1467 65.7516L37.6232 59.0775Z" fill="white"/>
</svg>
