<svg width="16" height="13" viewBox="0 0 16 13" fill="none" xmlns="http://www.w3.org/2000/svg">
<path d="M1.40246 5.43404C1.40246 5.43404 7.91276 2.69201 10.1706 1.72648C11.0362 1.34029 13.9715 0.104405 13.9715 0.104405C13.9715 0.104405 15.3262 -0.436251 15.2133 0.876823C15.1757 1.41753 14.8746 3.3099 14.5736 5.3568C14.122 8.25336 13.6328 11.4202 13.6328 11.4202C13.6328 11.4202 13.5575 12.3085 12.9178 12.463C12.2781 12.6175 11.2243 11.9223 11.0362 11.7678C10.8856 11.652 8.2138 9.91402 7.23538 9.06437C6.97195 8.83266 6.67091 8.36924 7.27298 7.82853C8.62775 6.55405 10.2459 4.97062 11.2243 3.9665C11.6759 3.50302 12.1275 2.42166 10.2459 3.73473C7.57407 5.62716 4.93985 7.40371 4.93985 7.40371C4.93985 7.40371 4.33772 7.78989 3.20878 7.4423C2.07979 7.09476 0.762677 6.63129 0.762677 6.63129C0.762677 6.63129 -0.140432 6.05199 1.40246 5.43404Z" fill="white"/>
</svg>
